<svg width="55" height="50" viewBox="0 0 55 50" fill="none" xmlns="http://www.w3.org/2000/svg">
<path d="M47.2928 14.5833H6.75613C6.15885 14.5833 5.58604 14.8028 5.1637 15.1935C4.74136 15.5842 4.50409 16.1141 4.50409 16.6667V41.6667C4.50409 42.7717 4.97862 43.8315 5.8233 44.6129C6.66798 45.3943 7.81361 45.8333 9.00817 45.8333H45.0408C46.2354 45.8333 47.381 45.3943 48.2257 44.6129C49.0704 43.8315 49.5449 42.7717 49.5449 41.6667V16.6667C49.5449 16.1141 49.3076 15.5842 48.8853 15.1935C48.4629 14.8028 47.8901 14.5833 47.2928 14.5833Z" fill="url(#paint0_linear_11_48)"/>
<path d="M49.5449 12.5V18.75H4.50409V12.5C4.50409 11.3949 4.97862 10.3351 5.8233 9.55372C6.66798 8.77231 7.81361 8.33333 9.00817 8.33333H45.0408C46.2354 8.33333 47.381 8.77231 48.2257 9.55372C49.0704 10.3351 49.5449 11.3949 49.5449 12.5ZM26.3714 36.8958L35.3796 28.5625C35.8036 28.1702 36.0419 27.6381 36.0419 27.0833C36.0419 26.5285 35.8036 25.9965 35.3796 25.6042C34.9555 25.2119 34.3803 24.9915 33.7806 24.9915C33.1809 24.9915 32.6057 25.2119 32.1817 25.6042L24.7724 32.4792L21.8673 29.7708C21.4432 29.3785 20.8681 29.1581 20.2684 29.1581C19.6686 29.1581 19.0935 29.3785 18.6694 29.7708C18.2454 30.1631 18.0071 30.6952 18.0071 31.25C18.0071 31.8048 18.2454 32.3369 18.6694 32.7292L23.1735 36.8958C23.3829 37.0911 23.6319 37.2461 23.9064 37.3519C24.1808 37.4576 24.4752 37.5121 24.7724 37.5121C25.0697 37.5121 25.3641 37.4576 25.6385 37.3519C25.913 37.2461 26.162 37.0911 26.3714 36.8958Z" fill="#DDDDDD"/>
<path d="M36.0326 14.5833C35.4354 14.5833 34.8625 14.3638 34.4402 13.9731C34.0179 13.5824 33.7806 13.0525 33.7806 12.5V6.25001C33.7806 5.69747 34.0179 5.16757 34.4402 4.77687C34.8625 4.38617 35.4354 4.16667 36.0326 4.16667C36.6299 4.16667 37.2027 4.38617 37.6251 4.77687C38.0474 5.16757 38.2847 5.69747 38.2847 6.25001V12.5C38.2847 13.0525 38.0474 13.5824 37.6251 13.9731C37.2027 14.3638 36.6299 14.5833 36.0326 14.5833ZM20.2684 12.5V6.25001C20.2684 5.69747 20.0311 5.16757 19.6088 4.77687C19.1864 4.38617 18.6136 4.16667 18.0163 4.16667C17.419 4.16667 16.8462 4.38617 16.4239 4.77687C16.0016 5.16757 15.7643 5.69747 15.7643 6.25001V12.5C15.7643 13.0525 16.0016 13.5824 16.4239 13.9731C16.8462 14.3638 17.419 14.5833 18.0163 14.5833C18.6136 14.5833 19.1864 14.3638 19.6088 13.9731C20.0311 13.5824 20.2684 13.0525 20.2684 12.5Z" fill="url(#paint1_linear_11_48)"/>
<defs>
<linearGradient id="paint0_linear_11_48" x1="4.3239" y1="7.49999" x2="32.2009" y2="38.1726" gradientUnits="userSpaceOnUse">
<stop stop-color="#0B3E27"/>
<stop offset="1" stop-color="#197149"/>
</linearGradient>
<linearGradient id="paint1_linear_11_48" x1="27.0245" y1="4.16667" x2="27.0245" y2="14.5833" gradientUnits="userSpaceOnUse">
<stop stop-color="#0B3E27"/>
<stop offset="1" stop-color="#197149"/>
</linearGradient>
</defs>
</svg>
