<svg width="50" height="40" viewBox="0 0 50 40" fill="none" xmlns="http://www.w3.org/2000/svg">
  <path
    d="M47.6923 13.8462C46.7692 13.8462 46.1538 14.4615 46.1538 15.3846C46.1538 24.3077 40.6154 32 32.9231 35.2308C37.2308 31.5385 40 26.1538 40 20C40 8.92308 31.0769 0 20 0C8.92308 0 0 8.92308 0 20C0 31.0769 8.92308 40 20 40H24.6154C38.1538 40 49.2308 28.9231 49.2308 15.3846C49.2308 14.4615 48.6154 13.8462 47.6923 13.8462ZM9.07692 9.07692C10.7692 7.23077 13.8462 7.23077 15.5385 9.07692C16.4615 9.84615 16.9231 11.0769 16.9231 12.3077C16.9231 13.5385 16.4615 14.7692 15.5385 15.5385C14.7692 16.4615 13.5385 16.9231 12.3077 16.9231C11.0769 16.9231 9.84615 16.4615 9.07692 15.5385C8.15385 14.7692 7.69231 13.5385 7.69231 12.3077C7.69231 11.0769 8.15385 9.84615 9.07692 9.07692ZM15.5385 30.9231C14.7692 31.8462 13.5385 32.3077 12.3077 32.3077C11.0769 32.3077 9.84615 31.8462 9.07692 30.9231C8.15385 30.1538 7.69231 28.9231 7.69231 27.6923C7.69231 26.4615 8.15385 25.2308 9.07692 24.4615C10.7692 22.7692 13.8462 22.7692 15.5385 24.4615C16.4615 25.3846 16.9231 26.4615 16.9231 27.6923C16.9231 28.9231 16.4615 30.1538 15.5385 30.9231ZM16.7692 23.2308C15.8462 22.4615 15.3846 21.2308 15.3846 20C15.3846 18.7692 15.8462 17.5385 16.7692 16.7692C18.4615 15.0769 21.5385 15.0769 23.2308 16.7692C24.1538 17.6923 24.6154 18.7692 24.6154 20C24.6154 21.2308 24.1538 22.4615 23.2308 23.2308C22.4615 24.1538 21.2308 24.6154 20 24.6154C18.7692 24.6154 17.5385 24.1538 16.7692 23.2308ZM30.9231 30.9231C30.1538 31.8462 28.9231 32.3077 27.6923 32.3077C26.4615 32.3077 25.2308 31.8462 24.4615 30.9231C23.5385 30.1538 23.0769 28.9231 23.0769 27.6923C23.0769 26.4615 23.5385 25.2308 24.4615 24.4615C26.1538 22.7692 29.2308 22.7692 30.9231 24.4615C31.8462 25.3846 32.3077 26.4615 32.3077 27.6923C32.3077 28.9231 31.8462 30.1538 30.9231 30.9231ZM30.9231 15.5385C30.1538 16.4615 28.9231 16.9231 27.6923 16.9231C26.4615 16.9231 25.2308 16.4615 24.4615 15.5385C23.5385 14.7692 23.0769 13.5385 23.0769 12.3077C23.0769 11.0769 23.5385 9.84615 24.4615 9.07692C26.1538 7.38461 29.2308 7.38461 30.9231 9.07692C31.8462 9.84615 32.3077 11.0769 32.3077 12.3077C32.3077 13.5385 31.8462 14.7692 30.9231 15.5385Z"
    fill="#DDDDDD"/>
</svg>
