<svg width="50" height="50" viewBox="0 0 50 50" fill="none" xmlns="http://www.w3.org/2000/svg">
<g clip-path="url(#clip0_55_5)">
<path d="M27.0833 27.0833C31.6856 27.0833 35.4166 30.8144 35.4166 35.4167V38.5417C35.4166 40.2675 34.0175 41.6667 32.2916 41.6667H7.29163C5.56573 41.6667 4.16663 40.2675 4.16663 38.5417V35.4167C4.16663 30.8144 7.89758 27.0833 12.5 27.0833H27.0833ZM39.5833 27.0837C43.0352 27.0837 45.8333 29.8821 45.8333 33.3337V36.4587C45.8333 38.1848 44.4341 39.5837 42.7083 39.5837H39.5833V35.4167C39.5833 32.0094 37.9475 28.9844 35.4183 27.0837H39.5833ZM19.7916 6.25C24.9693 6.25 29.1666 10.4473 29.1666 15.625C29.1666 20.8027 24.9693 25 19.7916 25C14.614 25 10.4166 20.8027 10.4166 15.625C10.4166 10.4473 14.614 6.25 19.7916 6.25ZM37.5 12.5C40.9518 12.5 43.75 15.2982 43.75 18.75C43.75 22.2019 40.9518 25 37.5 25C34.0481 25 31.25 22.2019 31.25 18.75C31.25 15.2982 34.0481 12.5 37.5 12.5Z" fill="url(#paint0_linear_55_5)"/>
</g>
<defs>
<linearGradient id="paint0_linear_55_5" x1="25" y1="6.25" x2="25" y2="41.6667" gradientUnits="userSpaceOnUse">
<stop stop-color="#0B3E27"/>
<stop offset="1" stop-color="#197149"/>
</linearGradient>
<clipPath id="clip0_55_5">
<rect width="50" height="50" fill="white"/>
</clipPath>
</defs>
</svg>
