<svg width="55" height="50" viewBox="0 0 55 50" fill="none" xmlns="http://www.w3.org/2000/svg">
<path d="M42.7887 16.6667H36.0326C35.4353 16.6667 34.8625 16.8862 34.4402 17.2769C34.0178 17.6676 33.7806 18.1975 33.7806 18.75V43.75C33.7806 44.3025 34.0178 44.8324 34.4402 45.2231C34.8625 45.6138 35.4353 45.8333 36.0326 45.8333H45.0408C45.6381 45.8333 46.2109 45.6138 46.6332 45.2231C47.0556 44.8324 47.2928 44.3025 47.2928 43.75V20.8333C47.2928 19.7283 46.8183 18.6685 45.9736 17.8871C45.1289 17.1057 43.9833 16.6667 42.7887 16.6667Z" fill="#DDDDDD"/>
<path d="M47.2928 41.6667H38.2847V6.25C38.283 5.91948 38.1964 5.59407 38.0319 5.30064C37.8675 5.00722 37.6299 4.7542 37.3388 4.5625C37.0501 4.36891 36.7158 4.24151 36.3634 4.1908C36.011 4.1401 35.6507 4.16753 35.312 4.27084L9.84142 12.125C8.94261 12.401 8.1607 12.932 7.60682 13.6426C7.05293 14.3532 6.75527 15.2073 6.75613 16.0833V41.6667C6.15885 41.6667 5.58604 41.8862 5.1637 42.2769C4.74136 42.6676 4.50409 43.1975 4.50409 43.75C4.50409 44.3025 4.74136 44.8324 5.1637 45.2231C5.58604 45.6138 6.15885 45.8333 6.75613 45.8333H47.2928C47.8901 45.8333 48.4629 45.6138 48.8853 45.2231C49.3076 44.8324 49.5449 44.3025 49.5449 43.75C49.5449 43.1975 49.3076 42.6676 48.8853 42.2769C48.4629 41.8862 47.8901 41.6667 47.2928 41.6667Z" fill="url(#paint0_linear_11_21)"/>
<path d="M27.0245 29.1667H18.0163C17.419 29.1667 16.8462 29.3862 16.4239 29.7769C16.0016 30.1676 15.7643 30.6975 15.7643 31.25V41.6667H29.2765V31.25C29.2765 30.6975 29.0393 30.1676 28.6169 29.7769C28.1946 29.3862 27.6218 29.1667 27.0245 29.1667Z" fill="#DDDDDD"/>
<defs>
<linearGradient id="paint0_linear_11_21" x1="4.32394" y1="4" x2="24.9236" y2="31.5697" gradientUnits="userSpaceOnUse">
<stop stop-color="#0B3E27"/>
<stop offset="1" stop-color="#197149"/>
</linearGradient>
</defs>
</svg>
