<svg width="44" height="44" viewBox="0 0 44 44" fill="none" xmlns="http://www.w3.org/2000/svg">
<path d="M22 3.66663C25.9273 3.66663 29.1336 6.7539 29.3243 10.6337L29.3333 10.9996L29.3351 23.3346L29.4368 23.4402C30.8958 25.032 31.8137 27.0548 32.0325 29.2341L32.0705 29.7396L32.0833 30.25C32.0833 35.8188 27.5688 40.3333 22 40.3333C16.4311 40.3333 11.9166 35.8188 11.9166 30.25C11.9166 27.8574 12.7561 25.5974 14.2377 23.8132L14.565 23.4383L14.6648 23.3328L14.6666 11C14.6666 7.19929 17.5579 4.07392 21.261 3.70339L21.634 3.6756L22 3.66663ZM22 7.33329C20.067 7.33329 18.4833 8.82907 18.3433 10.7264L18.3333 11L18.3328 24.9206L17.7222 25.4671C16.3691 26.6784 15.5833 28.3987 15.5833 30.25C15.5833 33.7938 18.4561 36.6666 22 36.6666C25.5438 36.6666 28.4166 33.7938 28.4166 30.25C28.4166 28.5315 27.7396 26.926 26.5601 25.7356L26.2791 25.4684L25.6691 24.922L25.6666 11C25.6666 8.97492 24.025 7.33329 22 7.33329ZM22 14.6666C23.0125 14.6666 23.8333 15.4874 23.8333 16.5L23.8348 26.0487C25.4527 26.7563 26.5833 28.3711 26.5833 30.25C26.5833 32.7813 24.5313 34.8333 22 34.8333C19.4687 34.8333 17.4166 32.7813 17.4166 30.25C17.4166 28.3704 18.548 26.755 20.1669 26.0479L20.1666 16.5C20.1666 15.4874 20.9874 14.6666 22 14.6666Z" fill="#DDDDDD"/>
</svg>
