<svg width="9" height="12" viewBox="0 0 9 12" fill="none" xmlns="http://www.w3.org/2000/svg">
  <path fill-rule="evenodd" clip-rule="evenodd"
        d="M4.5 5.625C3.87862 5.625 3.375 5.12137 3.375 4.5C3.375 3.87862 3.87862 3.375 4.5 3.375C5.12137 3.375 5.625 3.87862 5.625 4.5C5.625 5.12137 5.12137 5.625 4.5 5.625ZM4.5 2.625C3.46462 2.625 2.625 3.46425 2.625 4.5C2.625 5.53575 3.46462 6.375 4.5 6.375C5.53537 6.375 6.375 5.53575 6.375 4.5C6.375 3.46425 5.53537 2.625 4.5 2.625ZM4.5 10.875C3.87637 10.8784 0.75 6.06787 0.75 4.5C0.75 2.42925 2.42887 0.75 4.5 0.75C6.57112 0.75 8.25 2.42925 8.25 4.5C8.25 6.04687 5.11387 10.8784 4.5 10.875ZM4.5 0C2.01487 0 0 2.01487 0 4.5C0 6.38175 3.75187 12.0041 4.5 12C5.2365 12.0041 9 6.35625 9 4.5C9 2.01487 6.98512 0 4.5 0Z"
        fill="#DDDDDD" fill-opacity="0.5"/>
</svg>
