<svg width="50" height="50" viewBox="0 0 50 50" fill="none" xmlns="http://www.w3.org/2000/svg">
<path d="M39.0625 20.3125C39.0625 16.5829 37.5809 13.006 34.9437 10.3688C32.3065 7.73158 28.7296 6.25 25 6.25C21.2704 6.25 17.6935 7.73158 15.0563 10.3688C12.4191 13.006 10.9375 16.5829 10.9375 20.3125C10.9375 26.0812 15.5531 33.6 25 42.6063C34.4469 33.6 39.0625 26.0812 39.0625 20.3125ZM25 46.875C13.5406 36.4594 7.8125 27.6031 7.8125 20.3125C7.8125 15.7541 9.62332 11.3824 12.8466 8.1591C16.0699 4.93582 20.4416 3.125 25 3.125C29.5584 3.125 33.9301 4.93582 37.1534 8.1591C40.3767 11.3824 42.1875 15.7541 42.1875 20.3125C42.1875 27.6031 36.4594 36.4594 25 46.875Z" fill="#DDDDDD"/>
<path d="M25 21.875C25.8288 21.875 26.6237 21.5458 27.2097 20.9597C27.7958 20.3737 28.125 19.5788 28.125 18.75C28.125 17.9212 27.7958 17.1263 27.2097 16.5403C26.6237 15.9542 25.8288 15.625 25 15.625C24.1712 15.625 23.3763 15.9542 22.7903 16.5403C22.2042 17.1263 21.875 17.9212 21.875 18.75C21.875 19.5788 22.2042 20.3737 22.7903 20.9597C23.3763 21.5458 24.1712 21.875 25 21.875ZM25 25C23.3424 25 21.7527 24.3415 20.5806 23.1694C19.4085 21.9973 18.75 20.4076 18.75 18.75C18.75 17.0924 19.4085 15.5027 20.5806 14.3306C21.7527 13.1585 23.3424 12.5 25 12.5C26.6576 12.5 28.2473 13.1585 29.4194 14.3306C30.5915 15.5027 31.25 17.0924 31.25 18.75C31.25 20.4076 30.5915 21.9973 29.4194 23.1694C28.2473 24.3415 26.6576 25 25 25ZM41.875 34.375L46.875 46.875H32.8125V43.75H17.1875V46.875H3.125L8.125 34.375H41.875ZM38.5094 34.375H11.4906L7.74062 43.75H42.2594L38.5094 34.375Z" fill="#DDDDDD"/>
</svg>
