<svg width="50" height="50" viewBox="0 0 50 50" fill="none" xmlns="http://www.w3.org/2000/svg">
<path d="M38.3333 39.4167H11.25L5 45.6667V10.25C5 6.8125 7.8125 4 11.25 4H38.3333C41.7708 4 44.5833 6.8125 44.5833 10.25V33.1667C44.5833 36.6042 41.7708 39.4167 38.3333 39.4167Z" fill="url(#paint0_linear_55_13)"/>
<path d="M22.9166 20.8333H27.0833V32.2917H22.9166V20.8333Z" fill="white"/>
<path d="M22.9166 15.625C22.9166 16.1775 23.1361 16.7074 23.5268 17.0981C23.9175 17.4888 24.4474 17.7083 25 17.7083C25.5525 17.7083 26.0824 17.4888 26.4731 17.0981C26.8638 16.7074 27.0833 16.1775 27.0833 15.625C27.0833 15.0725 26.8638 14.5426 26.4731 14.1519C26.0824 13.7612 25.5525 13.5417 25 13.5417C24.4474 13.5417 23.9175 13.7612 23.5268 14.1519C23.1361 14.5426 22.9166 15.0725 22.9166 15.625Z" fill="white"/>
<defs>
<linearGradient id="paint0_linear_55_13" x1="24.7917" y1="4" x2="24.7917" y2="45.6667" gradientUnits="userSpaceOnUse">
<stop stop-color="#0B3E27"/>
<stop offset="1" stop-color="#197149"/>
</linearGradient>
</defs>
</svg>
