<svg width="40" height="40" viewBox="0 0 40 40" fill="none" xmlns="http://www.w3.org/2000/svg">
  <g clip-path="url(#clip0_189_107)">
    <path
      d="M0 0V40H40V0H0ZM27.4787 22.8301C25.8909 24.4209 23.6686 25.4142 21.2417 25.413H16.9022V32.228H10.6846V7.77195H16.4874H16.9021H21.2416C23.6685 7.7707 25.8915 8.76406 27.4786 10.3562C29.0706 11.9433 30.0634 14.1655 30.0622 16.5931C30.0634 19.0194 29.0707 21.2429 27.4787 22.8301Z"
      fill="#DDDDDD"/>
    <path
      d="M21.2418 13.3677H16.9022V19.8171H21.2418C22.141 19.816 22.9297 19.4601 23.5223 18.8724C24.1101 18.2798 24.4653 17.4917 24.4665 16.593C24.4653 15.6931 24.1101 14.905 23.5218 14.3124C22.9296 13.7247 22.141 13.3689 21.2418 13.3677Z"
      fill="#DDDDDD"/>
  </g>
  <defs>
    <clipPath id="clip0_189_107">
      <rect width="40" height="40" fill="white"/>
    </clipPath>
  </defs>
</svg>
