<svg width="32" height="30" viewBox="0 0 32 30" fill="none" xmlns="http://www.w3.org/2000/svg">
<path d="M21.6962 20.4992L22.4348 19.7648L20.7196 18.0399L19.9812 18.7743L21.6962 20.4992ZM24.9152 19.4571L28.0132 21.1413L29.1749 19.0044L26.0769 17.3202L24.9152 19.4571ZM28.6096 24.4886L26.306 26.7791L28.021 28.504L30.3246 26.2135L28.6096 24.4886ZM24.9024 27.5166C22.5512 27.7357 16.4683 27.5405 9.88235 20.9918L8.16729 22.7167C15.3543 29.8629 22.1946 30.2119 25.1281 29.9385L24.9024 27.5166ZM9.88235 20.9918C3.60455 14.7497 2.56464 9.49953 2.43519 7.22184L0.00672757 7.35985C0.169633 10.2266 1.45729 16.0448 8.16729 22.7167L9.88235 20.9918ZM12.1126 10.9699L12.5776 10.5075L10.8626 8.78262L10.3975 9.24507L12.1126 10.9699ZM12.9478 4.61264L10.9031 1.88123L8.9559 3.33894L11.0006 6.07037L12.9478 4.61264ZM4.02589 1.28672L1.48064 3.81752L3.1957 5.54238L5.74095 3.01157L4.02589 1.28672ZM11.2551 10.1075C10.3975 9.24507 10.3964 9.24622 10.3952 9.24739C10.3948 9.24778 10.3937 9.24896 10.3929 9.24975C10.3913 9.25136 10.3896 9.25298 10.388 9.25465C10.3847 9.25801 10.3813 9.26149 10.3778 9.26513C10.3708 9.27241 10.3634 9.28029 10.3555 9.28879C10.3399 9.30576 10.3227 9.32519 10.3043 9.34713C10.2676 9.39099 10.2259 9.44501 10.1821 9.50963C10.0944 9.63918 9.99871 9.81047 9.91755 10.0259C9.75194 10.4654 9.66315 11.0448 9.77446 11.7623C9.99214 13.1654 10.9585 15.0189 13.4338 17.4801L15.1488 15.7552C12.8324 13.4519 12.2805 12.0502 12.1781 11.3894C12.1293 11.0749 12.1798 10.9201 12.1938 10.8835C12.2022 10.8608 12.2063 10.8585 12.1959 10.874C12.1907 10.8816 12.1821 10.8934 12.1687 10.9094C12.162 10.9174 12.1541 10.9264 12.1448 10.9365C12.1401 10.9416 12.1353 10.9469 12.1297 10.9524C12.1271 10.9552 12.1244 10.9581 12.1215 10.961C12.12 10.9624 12.1186 10.9639 12.1171 10.9654C12.1164 10.9661 12.1153 10.9673 12.1148 10.9677C12.1137 10.9688 12.1126 10.9699 11.2551 10.1075ZM13.4338 17.4801C15.91 19.9422 17.7721 20.9004 19.1775 21.116C19.8957 21.2261 20.4748 21.1383 20.9141 20.9746C21.1294 20.8944 21.301 20.7998 21.4307 20.7129C21.4956 20.6695 21.5497 20.6281 21.5937 20.5916C21.6157 20.5735 21.6352 20.5564 21.6522 20.5409C21.6608 20.5331 21.6687 20.5258 21.676 20.5188C21.6798 20.5152 21.6832 20.5118 21.6866 20.5086C21.6882 20.507 21.6898 20.5053 21.6915 20.5037C21.6923 20.5029 21.6936 20.5018 21.6939 20.5015C21.695 20.5003 21.6962 20.4992 20.8387 19.6367C19.9812 18.7743 19.9823 18.7732 19.9834 18.772C19.9838 18.7717 19.9849 18.7706 19.9857 18.7698C19.9872 18.7683 19.9886 18.7668 19.9901 18.7654C19.9932 18.7626 19.9959 18.7599 19.9987 18.7571C20.0043 18.7518 20.0097 18.7469 20.0147 18.7422C20.0248 18.7331 20.0339 18.7252 20.042 18.7187C20.0579 18.7054 20.0697 18.6969 20.077 18.6919C20.0921 18.6819 20.089 18.6864 20.065 18.6953C20.0253 18.7101 19.8662 18.7608 19.5464 18.7117C18.8762 18.6091 17.4646 18.0577 15.1488 15.7552L13.4338 17.4801ZM10.9031 1.88123C9.25018 -0.326713 5.9999 -0.676085 4.02589 1.28672L5.74095 3.01157C6.60312 2.15429 8.13435 2.24155 8.9559 3.33894L10.9031 1.88123ZM2.43519 7.22184C2.40329 6.66059 2.6607 6.07432 3.1957 5.54238L1.48064 3.81752C0.609327 4.68389 -0.0756655 5.9103 0.00672757 7.35985L2.43519 7.22184ZM26.306 26.7791C25.8604 27.2223 25.3827 27.4719 24.9024 27.5166L25.1281 29.9385C26.3193 29.8274 27.2953 29.2256 28.021 28.504L26.306 26.7791ZM12.5776 10.5075C14.1741 8.92005 14.2928 6.40918 12.9478 4.61264L11.0006 6.07037C11.6549 6.94437 11.5576 8.09155 10.8626 8.78262L12.5776 10.5075ZM28.0132 21.1413C29.3394 21.8623 29.546 23.5575 28.6096 24.4886L30.3246 26.2135C32.4981 24.0524 31.8279 20.4465 29.1749 19.0044L28.0132 21.1413ZM22.4348 19.7648C23.0575 19.1456 24.0598 18.9922 24.9152 19.4571L26.0769 17.3202C24.3197 16.3649 22.139 16.6288 20.7196 18.0399L22.4348 19.7648Z" fill="#DDDDDD"/>
</svg>
