<svg width="40" height="40" viewBox="0 0 40 40" fill="none" xmlns="http://www.w3.org/2000/svg">
<path d="M16.7974 12.3602L13.7763 0.98039C15.7298 0.355845 17.8213 0 20 0C22.1786 0 24.27 0.355845 26.2236 0.98039L23.2026 12.3602C22.2222 11.9608 21.1547 11.7356 20 11.7356C18.8889 11.7429 17.7777 11.9608 16.7974 12.3602ZM15.1125 12.273L12.716 3.29702C8.48945 5.11982 5.11255 8.49672 3.24618 12.716L12.2222 15.1125C12.9775 13.9651 13.9579 12.9847 15.1125 12.273ZM11.7356 20.0072C11.7356 18.8961 11.9608 17.785 12.3602 16.8046L0.98039 13.7836C0.355845 15.7371 0 17.8286 0 20.0072C0 22.1859 0.355845 24.2774 0.98039 26.2309L12.3602 23.2098C11.9535 22.2294 11.7356 21.1183 11.7356 20.0072ZM39.0196 13.7836L27.6397 16.8046C28.0392 17.785 28.2643 18.8525 28.2643 20.0072C28.2643 21.1183 28.0392 22.2294 27.6397 23.2098L39.0196 26.2309C39.6442 24.2774 40 22.1859 40 20.0072C40 17.8286 39.6441 15.7371 39.0196 13.7836ZM27.7777 15.1198L36.7537 12.7233C34.9309 8.49672 31.5105 5.11982 27.3347 3.29702L24.9382 12.273C26.042 12.9847 27.0224 13.9651 27.7777 15.1198ZM27.8212 24.8947C27.066 26.0493 26.0856 27.0297 24.931 27.785L27.3275 36.7611C31.5468 34.8947 34.9309 31.5178 36.7972 27.2912L27.8212 24.8947ZM12.1786 24.9382L3.20261 27.342C5.02541 31.5613 8.44588 34.9455 12.6725 36.8118L15.069 27.8358C13.9143 27.0733 12.9339 26.0929 12.1786 24.9382ZM20 28.2716C18.8889 28.2716 17.7777 28.0464 16.7974 27.647L13.7763 39.0268C15.7298 39.6513 17.8213 40.0072 20 40.0072C22.1786 40.0072 24.27 39.6513 26.2236 39.0268L23.2026 27.647C22.2222 28.0537 21.111 28.2716 20 28.2716Z" fill="#DDDDDD"/>
</svg>
