<svg width="59" height="60" viewBox="0 0 59 60" fill="none" xmlns="http://www.w3.org/2000/svg">
<path d="M45.6563 0C54.1198 0 58.3516 3.80859 58.3516 11.4258L58.3516 18.3594C58.3516 34.6354 51.0273 48.4049 36.3789 59.668L29.7383 56.3477C39.3737 45.8008 44.2891 35.6445 44.4844 25.8789H42.9219C36.5417 25.8789 33.3516 22.2331 33.3516 14.9414V11.3281C33.3516 3.77604 36.9974 0 44.2891 0H45.6563ZM16.5313 0C24.9948 0 29.2266 3.80859 29.2266 11.4258V18.3594C29.2266 34.6354 21.9023 48.4049 7.25391 59.668L0.613281 56.3477C10.2487 45.8008 15.1641 35.6445 15.3594 25.8789H13.7969C7.41667 25.8789 4.22656 22.2331 4.22656 14.9414V11.3281C4.22656 3.77604 7.8724 0 15.1641 0H16.5313Z" fill="#0B3E27" fill-opacity="0.15"/>
</svg>
