<svg width="35" height="41" viewBox="0 0 35 41" fill="none" xmlns="http://www.w3.org/2000/svg">
<path d="M22.2774 5.17989C22.1163 3.08854 20.3697 1.44141 18.2372 1.44141C16.5073 1.44141 15.0312 2.5255 14.4493 4.05106C13.2621 1.65109 10.7896 0 7.93073 0C3.91564 0 0.660866 3.25477 0.660866 7.26978C0.660866 9.0803 1.32414 10.7348 2.41907 12.0074C0.981791 12.7572 0 14.2603 0 15.9935C0 17.7459 1.00356 19.2629 2.46674 20.004C1.90792 20.9615 1.58613 22.0746 1.58613 23.2633C1.58613 26.6471 4.18158 29.4232 7.48995 29.7134C5.8719 30.5109 4.75839 32.176 4.75839 34.1018C4.75839 36.8028 6.94791 38.9924 9.64893 38.9924H10.467V7.97478C10.467 6.43365 11.7208 5.17989 13.2619 5.17989H22.2774Z" fill="#DDDDDD"/>
<path d="M33.5289 7.24487H13.2619C12.8593 7.24487 12.5319 7.57234 12.5319 7.97483V40.27C12.5319 40.6726 12.8594 41 13.2619 41H33.5291C33.9316 41 34.259 40.6726 34.259 40.27V7.97483C34.2589 7.57234 33.9315 7.24487 33.5289 7.24487ZM17.9762 26.1463H15.2003C14.6302 26.1463 14.1679 25.6841 14.1679 25.1138C14.1679 24.5436 14.6302 24.0813 15.2003 24.0813H17.9762C18.5464 24.0813 19.0087 24.5436 19.0087 25.1138C19.0087 25.6841 18.5464 26.1463 17.9762 26.1463ZM29.117 17.2786C29.117 18.229 28.3466 18.9994 27.3962 18.9994H19.3946C18.4442 18.9994 17.6738 18.229 17.6738 17.2786V12.8045C17.6738 11.8542 18.4442 11.0838 19.3946 11.0838H27.3962C28.3466 11.0838 29.117 11.8542 29.117 12.8045V17.2786Z" fill="#DDDDDD"/>
</svg>
