<svg width="38" height="38" viewBox="0 0 38 38" fill="none" xmlns="http://www.w3.org/2000/svg">
<path d="M3.5625 19.3959C3.5625 18.7401 4.09417 18.2084 4.75 18.2084C13.2759 18.2084 20.1875 25.1199 20.1875 33.6459C20.1875 34.3017 19.6558 34.8334 19 34.8334C18.3442 34.8334 17.8125 34.3017 17.8125 33.6459C17.8125 26.4317 11.9642 20.5834 4.75 20.5834C4.09417 20.5834 3.5625 20.0517 3.5625 19.3959Z" fill="#DDDDDD"/>
<path d="M3.5625 24.1459C3.5625 23.4901 4.09417 22.9584 4.75 22.9584C10.6525 22.9584 15.4375 27.7434 15.4375 33.6459C15.4375 34.3017 14.9058 34.8334 14.25 34.8334C13.5942 34.8334 13.0625 34.3017 13.0625 33.6459C13.0625 29.055 9.34087 25.3334 4.75 25.3334C4.09417 25.3334 3.5625 24.8017 3.5625 24.1459Z" fill="#DDDDDD"/>
<path d="M4.75 27.7084C4.09417 27.7084 3.5625 28.2401 3.5625 28.8959C3.5625 29.5517 4.09417 30.0834 4.75 30.0834C6.71751 30.0834 8.3125 31.6784 8.3125 33.6459C8.3125 34.3017 8.84417 34.8334 9.5 34.8334C10.1558 34.8334 10.6875 34.3017 10.6875 33.6459C10.6875 30.3666 8.02919 27.7084 4.75 27.7084Z" fill="#DDDDDD"/>
<path d="M3.20542 16.1846C3.67267 15.9595 4.19661 15.8333 4.75002 15.8333C14.5876 15.8333 22.5625 23.8082 22.5625 33.6458C22.5625 34.0616 22.4913 34.4606 22.3605 34.8315C26.7641 34.8162 29.1296 34.6675 30.7974 33.2313C32.6579 31.6293 33.0437 28.9476 33.8156 23.584L34.2569 20.5166C34.8577 16.3412 35.1581 14.2536 34.3023 12.4686C33.4467 10.6837 31.6252 9.59866 27.9824 7.42867L25.7897 6.1225C22.4818 4.15192 20.8277 3.16663 19 3.16663C17.1724 3.16663 15.5183 4.15192 12.2103 6.1225L10.0176 7.42866C6.37482 9.59866 4.55342 10.6837 3.69769 12.4686C3.20591 13.4944 3.09596 14.6202 3.20542 16.1846Z" fill="#DDDDDD"/>
</svg>
