<svg width="40" height="40" viewBox="0 0 40 40" fill="none" xmlns="http://www.w3.org/2000/svg">
  <path
    d="M20 39.5312C30.7868 39.5312 39.5312 30.7868 39.5312 20C39.5312 9.21319 30.7868 0.46875 20 0.46875C9.21319 0.46875 0.46875 9.21319 0.46875 20C0.46875 30.7868 9.21319 39.5312 20 39.5312Z"
    fill="#DDDDDD"/>
  <path
    d="M20 1.83594C24.8519 1.83594 29.4132 3.72529 32.8439 7.15605C36.2747 10.5868 38.1641 15.1481 38.1641 20C38.1641 24.8519 36.2747 29.4132 32.8439 32.8439C29.4132 36.2747 24.8519 38.1641 20 38.1641C15.1481 38.1641 10.5868 36.2747 7.15605 32.8439C3.72529 29.4132 1.83594 24.8519 1.83594 20C1.83594 15.1481 3.72529 10.5868 7.15605 7.15605C10.5868 3.72529 15.1481 1.83594 20 1.83594ZM20 0.46875C9.21318 0.46875 0.46875 9.21318 0.46875 20C0.46875 30.7868 9.21318 39.5312 20 39.5312C30.7868 39.5312 39.5312 30.7868 39.5312 20C39.5312 9.21318 30.7868 0.46875 20 0.46875Z"
    fill="#DDDDDD"/>
  <path
    d="M20 28.7711C24.8441 28.7711 28.7711 24.8441 28.7711 20C28.7711 15.1558 24.8441 11.2288 20 11.2288C15.1558 11.2288 11.2288 15.1558 11.2288 20C11.2288 24.8441 15.1558 28.7711 20 28.7711Z"
    fill="#F8F8F8"/>
  <path
    d="M23.1062 17.4687C23.1062 17.9678 22.9779 18.4121 22.7214 18.8014C22.4649 19.1909 22.1151 19.4975 21.672 19.7214C21.9239 19.838 22.1523 19.9791 22.3576 20.1447C22.5628 20.3103 22.7377 20.498 22.8824 20.7079C23.0269 20.9177 23.1377 21.1475 23.2147 21.3969C23.2916 21.6464 23.3301 21.9111 23.3301 22.191C23.3301 22.6666 23.2461 23.0854 23.0782 23.4467C22.9104 23.8083 22.6771 24.1125 22.3786 24.3597C22.0801 24.607 21.7281 24.7935 21.3223 24.9194C20.9165 25.0453 20.4758 25.1083 20 25.1083C19.5243 25.1083 19.0835 25.0453 18.6778 24.9194C18.272 24.7935 17.9187 24.607 17.6179 24.3597C17.317 24.1125 17.0815 23.8083 16.9113 23.4467C16.7409 23.0853 16.6559 22.6666 16.6559 22.191C16.6559 21.9111 16.6944 21.6464 16.7713 21.3969C16.8483 21.1475 16.9577 20.9177 17.1001 20.7079C17.2423 20.498 17.416 20.3091 17.6213 20.1412C17.8265 19.9733 18.055 19.8334 18.307 19.7214C17.8685 19.4976 17.5222 19.191 17.2681 18.8014C17.0138 18.4121 16.8868 17.9678 16.8868 17.4687C16.8868 17.0164 16.9638 16.6141 17.1177 16.2619C17.2716 15.9098 17.4861 15.6136 17.7614 15.3734C18.0365 15.1333 18.3641 14.9513 18.7443 14.8277C19.1243 14.7042 19.5406 14.6423 19.9931 14.6423C20.4454 14.6423 20.8629 14.7042 21.2453 14.8277C21.6278 14.9513 21.9566 15.1333 22.2318 15.3734C22.5069 15.6136 22.7215 15.9098 22.8754 16.2619C23.0293 16.6141 23.1062 17.0164 23.1062 17.4687ZM21.6301 22.1071C21.6301 21.8552 21.5905 21.6255 21.5112 21.4179C21.4318 21.2104 21.321 21.0332 21.1788 20.8863C21.0365 20.7394 20.864 20.6251 20.6612 20.5435C20.4582 20.462 20.2332 20.421 19.9861 20.421C19.7342 20.421 19.5079 20.462 19.3074 20.5435C19.1069 20.6251 18.9366 20.7394 18.7967 20.8863C18.6568 21.0332 18.5484 21.2105 18.4714 21.4179C18.3945 21.6255 18.356 21.8551 18.356 22.1071C18.356 22.3636 18.3945 22.5933 18.4714 22.7961C18.5484 22.9991 18.6578 23.1716 18.8002 23.3138C18.9424 23.4561 19.1151 23.5646 19.3179 23.6391C19.5207 23.7138 19.7482 23.751 20 23.751C20.513 23.751 20.913 23.6065 21.1998 23.3172C21.4866 23.0282 21.6301 22.6248 21.6301 22.1071ZM21.4132 17.5317C21.4132 17.3079 21.3793 17.1027 21.3117 16.9161C21.2441 16.7295 21.1496 16.5687 21.0284 16.4334C20.9072 16.2981 20.7578 16.1932 20.5807 16.1185C20.4034 16.044 20.2075 16.0066 19.993 16.0066C19.5592 16.0066 19.2164 16.143 18.9646 16.4159C18.7127 16.6887 18.5867 17.0607 18.5867 17.5317C18.5867 17.7603 18.6193 17.9689 18.6847 18.1579C18.7499 18.3467 18.8432 18.5077 18.9646 18.6406C19.0858 18.7735 19.2339 18.8761 19.4088 18.9484C19.5837 19.0208 19.7807 19.0568 19.9999 19.0568C20.2191 19.0568 20.4162 19.0208 20.591 18.9484C20.7659 18.8761 20.914 18.7735 21.0353 18.6406C21.1565 18.5077 21.2497 18.3467 21.3152 18.1579C21.3805 17.9689 21.4132 17.7602 21.4132 17.5317Z"
    fill="#DDDDDD"/>
</svg>
