<svg width="41" height="37" viewBox="0 0 41 37" fill="none" xmlns="http://www.w3.org/2000/svg">
<path fill-rule="evenodd" clip-rule="evenodd" d="M16.6992 1.42061L5.25736 11.4192C4.036 12.4864 3.33721 14.0162 3.33721 15.6226V34.1879H1.43023C0.640344 34.1879 0 34.8173 0 35.594C0 36.3705 0.640344 37 1.43023 37H39.5698C40.3596 37 41 36.3705 41 35.594C41 34.8173 40.3596 34.1879 39.5698 34.1879H37.6628V15.6226C37.6628 14.0162 36.9641 12.4864 35.7427 11.4192L24.3008 1.42061C22.1331 -0.473538 18.8669 -0.473538 16.6992 1.42061ZM16.686 9.81633C15.8962 9.81633 15.2558 10.4458 15.2558 11.2224C15.2558 11.9989 15.8962 12.6284 16.686 12.6284H24.314C25.1038 12.6284 25.7442 11.9989 25.7442 11.2224C25.7442 10.4458 25.1038 9.81633 24.314 9.81633H16.686ZM24.4131 15.4404C26.1265 15.4404 27.5552 15.4404 28.6895 15.5904C29.8867 15.7486 30.9676 16.0966 31.836 16.9505C32.7047 17.8045 33.0588 18.8671 33.2197 20.044C33.3723 21.1591 33.3721 22.5636 33.3721 24.2481V34.1879H30.5116H10.4884H7.62791V24.2481C7.62785 22.5636 7.62779 21.1591 7.78029 20.044C7.94126 18.8671 8.29533 17.8045 9.1639 16.9505C10.0325 16.0966 11.1133 15.7486 12.3105 15.5904C13.4448 15.4404 14.8735 15.4404 16.5869 15.4404H24.4131Z" fill="#DDDDDD"/>
<path opacity="0.5" d="M24.256 13.5186H15.744C13.8805 13.5186 12.3265 13.5183 11.0929 13.6843C9.79085 13.8593 8.61526 14.2445 7.67059 15.1892C6.72591 16.1338 6.34081 17.3093 6.16574 18.6114C5.9999 19.8451 5.99994 21.399 6 23.2623V34.2593H34V23.2626C34 21.3992 34.0002 19.8451 33.8343 18.6114C33.6592 17.3093 33.2741 16.1338 32.3293 15.1892C31.3848 14.2445 30.2092 13.8593 28.9071 13.6843C27.6735 13.5183 26.1196 13.5186 24.256 13.5186Z" fill="#DDDDDD"/>
<path d="M13.7778 20.7778C12.9187 20.7778 12.2222 21.4743 12.2222 22.3334C12.2222 23.1925 12.9187 23.8889 13.7778 23.8889H26.2222C27.0813 23.8889 27.7778 23.1925 27.7778 22.3334C27.7778 21.4743 27.0813 20.7778 26.2222 20.7778H13.7778Z" fill="#DDDDDD"/>
<path d="M13.7778 27.0001C12.9187 27.0001 12.2222 27.6966 12.2222 28.5557C12.2222 29.4148 12.9187 30.1112 13.7778 30.1112H26.2222C27.0813 30.1112 27.7778 29.4148 27.7778 28.5557C27.7778 27.6966 27.0813 27.0001 26.2222 27.0001H13.7778Z" fill="#DDDDDD"/>
</svg>
